<svg xmlns="http://www.w3.org/2000/svg" width="64" height="64" viewBox="0 0 64 64" fill="none">
  <rect width="64" height="64" rx="16" fill="#0D5C3A"/>
  <path d="M12 28L32 12l20 16v24a4 4 0 0 1-4 4H16a4 4 0 0 1-4-4V28z" fill="#10B981" fill-opacity="0.2" stroke="#ffffff" stroke-width="4" stroke-linecap="round" stroke-linejoin="round"/>
  <path d="M26 56V38a2 2 0 0 1 2-2h12a2 2 0 0 1 2 2v18" stroke="#ffffff" stroke-width="4" stroke-linecap="round" stroke-linejoin="round"/>
  <path d="M44 18v-4a2 2 0 0 0-2-2h-4" stroke="#F59E0B" stroke-width="4" stroke-linecap="round" stroke-linejoin="round"/>
  <circle cx="32" cy="27" r="3" fill="#F59E0B"/>
</svg>